<svg viewBox="0 0 420 820" xmlns="http://www.w3.org/2000/svg" role="img" aria-label="Silhouette of a girl with flowing hair">
  <defs>
    <linearGradient id="bodyGrad" x1="0" y1="0" x2="0" y2="1">
      <stop offset="0" stop-color="#0a0e24" />
      <stop offset="0.5" stop-color="#1c2452" />
      <stop offset="1" stop-color="#283593" />
    </linearGradient>
    <linearGradient id="hairGrad" x1="0" y1="0" x2="1" y2="1">
      <stop offset="0" stop-color="#0a0e24" />
      <stop offset="1" stop-color="#28359e" />
    </linearGradient>
    <radialGradient id="glow" cx="0.5" cy="0.4" r="0.7">
      <stop offset="0" stop-color="#92cbdd" stop-opacity="0.35" />
      <stop offset="1" stop-color="#92cbdd" stop-opacity="0" />
    </radialGradient>
  </defs>

  <!-- soft glow behind the figure -->
  <ellipse cx="215" cy="380" rx="200" ry="330" fill="url(#glow)" />

  <!-- flowing hair (behind body) -->
  <path
    fill="url(#hairGrad)"
    d="M 206 74
       C 252 62 300 74 326 102
       C 350 128 358 162 350 192
       C 368 212 378 238 374 264
       C 370 292 358 314 346 326
       C 354 352 356 384 346 410
       C 337 433 320 450 304 458
       C 307 482 300 506 284 520
       C 270 533 252 536 240 530
       C 246 494 244 452 234 412
       C 223 368 206 330 188 304
       C 214 276 226 238 220 200
       C 214 162 198 124 178 100
       C 186 84 195 76 206 74 Z" />

  <!-- head, body and dress -->
  <path
    fill="url(#bodyGrad)"
    d="M 206 74
       C 174 76 150 100 146 130
       C 143 148 146 162 140 170
       C 136 175 130 178 131 183
       C 132 187 138 188 139 192
       C 140 196 138 200 139 204
       C 141 210 148 211 152 216
       C 155 220 156 228 154 236
       C 152 246 146 252 136 258
       C 116 270 98 288 90 316
       C 82 344 86 372 94 398
       C 88 440 72 500 56 560
       C 44 610 36 668 42 730
       C 92 772 152 788 214 784
       C 268 780 320 764 356 736
       C 348 660 332 570 310 492
       C 300 452 294 414 296 382
       C 297 360 302 342 306 326
       C 296 300 282 278 268 264
       C 258 254 250 246 248 234
       C 246 222 250 212 258 204
       C 272 190 278 168 274 144
       C 268 108 242 78 206 74 Z" />

  <!-- sparkles -->
  <circle cx="352" cy="150" r="3.5" fill="#92cbdd" opacity="0.8" />
  <circle cx="380" cy="330" r="2.5" fill="#d0e6e3" opacity="0.7" />
  <circle cx="330" cy="452" r="3" fill="#4272d7" opacity="0.8" />
  <circle cx="72" cy="300" r="2.5" fill="#92cbdd" opacity="0.7" />
  <circle cx="60" cy="480" r="3" fill="#d0e6e3" opacity="0.6" />
</svg>
